<svg width="32" height="32" viewBox="0 0 32 32" fill="none" xmlns="http://www.w3.org/2000/svg">
<path fill-rule="evenodd" clip-rule="evenodd" d="M30.48 6.85C29.55 7.27 28.53 7.52 27.53 7.69C28 7.61 28.71 6.75 28.98 6.4C29.41 5.87 29.76 5.27 29.96 4.61C29.99 4.56 30 4.49 29.96 4.46C29.9 4.43 29.85 4.45 29.8 4.47C28.68 5.07 27.53 5.5 26.3 5.81C26.2 5.84 26.12 5.81 26.06 5.75C25.96 5.64 25.86 5.53 25.75 5.44C24.51 4.38 22.92 3.9 21.35 4.01C21.35 4.01 21.36 4.01 21.37 4.01H21.25C21.25 4.01 21.28 4.01 21.29 4.02C20.42 4.09 19.56 4.34 18.77 4.79C16.47 6.09 15.36 8.64 15.74 11.2C15.76 11.34 15.74 11.36 15.62 11.34C10.81 10.62 6.81999 8.9 3.58999 5.21C3.44999 5.05 3.36999 5.05 3.25999 5.22C1.83999 7.34 2.52999 10.75 4.29999 12.43C4.53999 12.65 4.77999 12.88 5.03999 13.08C4.93999 13.1 3.76999 12.97 2.71999 12.43C2.57999 12.34 2.50999 12.39 2.49999 12.55C2.48999 12.78 2.49999 12.99 2.53999 13.24C2.80999 15.39 4.29999 17.38 6.33999 18.16C6.57999 18.26 6.84999 18.35 7.10999 18.4C6.64999 18.5 6.16999 18.57 4.82999 18.47C4.65999 18.44 4.59999 18.52 4.65999 18.68C5.65999 21.41 7.82999 22.22 9.44999 22.69C9.66999 22.73 9.87999 22.73 10.1 22.78C10.09 22.8 10.07 22.8 10.06 22.82C9.51999 23.64 7.65999 24.25 6.78999 24.55C5.20999 25.1 3.48999 25.35 1.82999 25.19C1.55999 25.15 1.50999 25.15 1.42999 25.19C1.35999 25.24 1.42999 25.3 1.50999 25.37C1.84999 25.59 2.18999 25.79 2.53999 25.98C3.59999 26.54 4.69999 26.99 5.85999 27.31C12.57 29.16 19.95 27.28 24.26 21.65C26.79 18.35 27.77 14.27 27.77 10.17C27.77 9.98 27.99 9.88 28.13 9.78C29.04 9.09 29.77 8.27 30.45 7.35C30.6 7.14 30.59 6.96 30.59 6.88V6.85C30.59 6.77 30.59 6.8 30.48 6.85Z" fill="#F5F5F5"/>
</svg>
